<svg width="17" height="17" viewBox="0 0 17 17" fill="none" xmlns="http://www.w3.org/2000/svg">
<path fill-rule="evenodd" clip-rule="evenodd" d="M1 3.93194C1 1.74343 1.02342 1.01416 3.91666 1.01416C6.8099 1.01416 6.83333 1.74343 6.83333 3.93194C6.83333 6.12046 6.84256 6.84972 3.91666 6.84972C0.990773 6.84972 1 6.12046 1 3.93194Z" stroke="#4D4D4D" stroke-width="1.5" stroke-linecap="round" stroke-linejoin="round"/>
<path fill-rule="evenodd" clip-rule="evenodd" d="M10.1666 3.93194C10.1666 1.74343 10.1901 1.01416 13.0833 1.01416C15.9765 1.01416 16 1.74343 16 3.93194C16 6.12046 16.0092 6.84972 13.0833 6.84972C10.1574 6.84972 10.1666 6.12046 10.1666 3.93194Z" stroke="#4D4D4D" stroke-width="1.5" stroke-linecap="round" stroke-linejoin="round"/>
<path fill-rule="evenodd" clip-rule="evenodd" d="M1 13.1021C1 10.9136 1.02342 10.1843 3.91666 10.1843C6.8099 10.1843 6.83333 10.9136 6.83333 13.1021C6.83333 15.2906 6.84256 16.0199 3.91666 16.0199C0.990773 16.0199 1 15.2906 1 13.1021Z" stroke="#4D4D4D" stroke-width="1.5" stroke-linecap="round" stroke-linejoin="round"/>
<path fill-rule="evenodd" clip-rule="evenodd" d="M10.1666 13.1021C10.1666 10.9136 10.1901 10.1843 13.0833 10.1843C15.9765 10.1843 16 10.9136 16 13.1021C16 15.2906 16.0092 16.0199 13.0833 16.0199C10.1574 16.0199 10.1666 15.2906 10.1666 13.1021Z" stroke="#4D4D4D" stroke-width="1.5" stroke-linecap="round" stroke-linejoin="round"/>
</svg>
