<svg width="48" height="48" viewBox="0 0 48 48" fill="none" xmlns="http://www.w3.org/2000/svg">
<path fill-rule="evenodd" clip-rule="evenodd" d="M0 4C0 1.79086 1.79086 0 4 0H44C46.2091 0 48 1.79086 48 4V44C48 46.2091 46.2091 48 44 48H4C1.79086 48 0 46.2091 0 44V4Z" fill="white"/>
<path d="M0.5 4C0.5 2.067 2.067 0.5 4 0.5H44C45.933 0.5 47.5 2.067 47.5 4V44C47.5 45.933 45.933 47.5 44 47.5H4C2.067 47.5 0.5 45.933 0.5 44V4Z" stroke="#E4E4E4" stroke-opacity="0.6"/>
<path d="M8.4935 27C9.3848 27 10.1169 26.8222 10.6899 26.4666C11.2629 26.111 11.5494 25.6054 11.5494 24.95C11.5494 24.5874 11.4486 24.3015 11.247 24.0923C11.0454 23.8832 10.8084 23.7332 10.5361 23.6426C10.2637 23.552 9.9224 23.4718 9.51213 23.402C9.17966 23.3393 8.94092 23.2818 8.79591 23.2295C8.6509 23.1772 8.57839 23.0952 8.57839 22.9837C8.57839 22.8582 8.65443 22.7553 8.80652 22.6751C8.9586 22.5949 9.19027 22.5548 9.50152 22.5548C10.1594 22.5548 10.7288 22.6978 11.2098 22.9837L11.9207 21.5926C11.6378 21.4531 11.3053 21.3433 10.9233 21.2631C10.5414 21.1829 10.1452 21.1429 9.73495 21.1429C8.82951 21.1429 8.09207 21.3224 7.52263 21.6815C6.95319 22.0406 6.66847 22.5479 6.66847 23.2033C6.66847 23.5798 6.77104 23.8727 6.97618 24.0819C7.18132 24.2911 7.42006 24.4392 7.6924 24.5264C7.96474 24.6136 8.31312 24.6955 8.73755 24.7722C9.05587 24.821 9.28753 24.8716 9.43255 24.9239C9.57756 24.9761 9.65006 25.0581 9.65006 25.1696C9.65006 25.4416 9.34236 25.5775 8.72694 25.5775C8.38032 25.5775 8.02663 25.5305 7.66587 25.4364C7.30511 25.3422 6.99386 25.215 6.73213 25.0546L6 26.4457C6.25466 26.606 6.61011 26.7385 7.06637 26.8431C7.52263 26.9477 7.99834 27 8.4935 27ZM17.6526 29L19.2856 21.0966H17.275L17.0972 21.9128C16.764 21.3042 16.1271 21 15.1866 21C14.5942 21 14.048 21.1468 13.5481 21.4403C13.0482 21.7338 12.652 22.1365 12.3595 22.6483C12.067 23.1602 11.9207 23.7311 11.9207 24.3611C11.9207 24.9051 12.0392 25.3776 12.2762 25.7785C12.5132 26.1794 12.8261 26.4855 13.2149 26.6966C13.6037 26.9078 14.0202 27.0134 14.4646 27.0134C15.0792 27.0134 15.6124 26.838 16.0642 26.4872L15.5421 29H17.6526ZM15.3212 25.4286C14.9826 25.4286 14.7163 25.331 14.5223 25.1359C14.3283 24.9407 14.2313 24.6728 14.2313 24.3322C14.2313 23.8497 14.3583 23.4594 14.6122 23.1613C14.8662 22.8633 15.1942 22.7143 15.5963 22.7143C15.9349 22.7143 16.2012 22.8136 16.3952 23.0123C16.5892 23.211 16.6862 23.4807 16.6862 23.8213C16.6862 24.2967 16.5592 24.6835 16.3053 24.9815C16.0513 25.2796 15.7233 25.4286 15.3212 25.4286ZM21.5783 27C21.9178 27 22.2482 26.9433 22.5693 26.8299C22.8905 26.7165 23.1802 26.5429 23.4386 26.309L23.3168 26.9043H25.31L26.506 21.1429H24.402L23.804 23.9917C23.7155 24.4169 23.553 24.7376 23.3168 24.9537C23.0806 25.1699 22.7816 25.2779 22.4198 25.2779C21.8809 25.2779 21.6115 25.0264 21.6115 24.5232C21.6115 24.3956 21.6262 24.2645 21.6558 24.1299L22.2759 21.1429H20.1719L19.5075 24.3212C19.4558 24.5622 19.43 24.7996 19.43 25.0334C19.43 25.6642 19.6238 26.1496 20.0113 26.4898C20.3989 26.8299 20.9212 27 21.5783 27ZM28.9054 27C29.5867 27 30.168 26.7908 30.6494 26.3724L30.5272 26.9059H32.5267L33.7264 21.237H31.6158L31.4714 21.9168C31.116 21.4008 30.5013 21.1429 29.6274 21.1429C29.035 21.1429 28.4888 21.2858 27.989 21.5717C27.4891 21.8576 27.0929 22.2498 26.8004 22.7483C26.5078 23.2469 26.3616 23.803 26.3616 24.4166C26.3616 24.9465 26.4801 25.4067 26.7171 25.7972C26.954 26.1877 27.2669 26.4858 27.6557 26.6915C28.0445 26.8972 28.4611 27 28.9054 27ZM29.4732 25.4286C29.1346 25.4286 28.8683 25.331 28.6743 25.1359C28.4803 24.9407 28.3833 24.6728 28.3833 24.3322C28.3833 23.8497 28.5103 23.4594 28.7642 23.1613C29.0182 22.8633 29.3462 22.7143 29.7483 22.7143C30.0869 22.7143 30.3533 22.8136 30.5473 23.0123C30.7412 23.211 30.8382 23.4807 30.8382 23.8213C30.8382 24.2967 30.7113 24.6835 30.4573 24.9815C30.2033 25.2796 29.8753 25.4286 29.4732 25.4286ZM36.2196 27.1429C36.8873 27.1429 37.4571 26.9188 37.9288 26.4706L37.8091 27.0453H39.7688L41.3801 19H39.3115L38.7345 21.8516C38.3788 21.3312 37.7801 21.071 36.9381 21.071C36.3575 21.071 35.8204 21.2191 35.3268 21.5155C34.8333 21.8119 34.4432 22.2185 34.1565 22.7353C33.8698 23.2521 33.7264 23.8286 33.7264 24.4647C33.7264 25.0141 33.8425 25.4912 34.0748 25.8959C34.3071 26.3007 34.6137 26.6098 34.9948 26.823C35.3758 27.0362 35.7841 27.1429 36.2196 27.1429ZM36.8321 25.4286C36.4921 25.4286 36.2264 25.331 36.0351 25.1359C35.8438 24.9407 35.7481 24.6728 35.7481 24.3322C35.7481 23.8497 35.8757 23.4594 36.1307 23.1613C36.3858 22.8633 36.7152 22.7143 37.1191 22.7143C37.4592 22.7143 37.7248 22.8136 37.9161 23.0123C38.1074 23.211 38.2031 23.4807 38.2031 23.8213C38.2031 24.2967 38.0755 24.6835 37.8205 24.9815C37.5654 25.2796 37.236 25.4286 36.8321 25.4286Z" fill="white"/>
<path d="M8.4935 27C9.3848 27 10.1169 26.8222 10.6899 26.4666C11.2629 26.111 11.5494 25.6054 11.5494 24.95C11.5494 24.5874 11.4486 24.3015 11.247 24.0923C11.0454 23.8832 10.8084 23.7332 10.5361 23.6426C10.2637 23.552 9.9224 23.4718 9.51213 23.402C9.17966 23.3393 8.94092 23.2818 8.79591 23.2295C8.6509 23.1772 8.57839 23.0952 8.57839 22.9837C8.57839 22.8582 8.65443 22.7553 8.80652 22.6751C8.9586 22.5949 9.19027 22.5548 9.50152 22.5548C10.1594 22.5548 10.7288 22.6978 11.2098 22.9837L11.9207 21.5926C11.6378 21.4531 11.3053 21.3433 10.9233 21.2631C10.5414 21.1829 10.1452 21.1429 9.73495 21.1429C8.82951 21.1429 8.09207 21.3224 7.52263 21.6815C6.95319 22.0406 6.66847 22.5479 6.66847 23.2033C6.66847 23.5798 6.77104 23.8727 6.97618 24.0819C7.18132 24.2911 7.42006 24.4392 7.6924 24.5264C7.96474 24.6136 8.31312 24.6955 8.73755 24.7722C9.05587 24.821 9.28753 24.8716 9.43255 24.9239C9.57756 24.9761 9.65006 25.0581 9.65006 25.1696C9.65006 25.4416 9.34236 25.5775 8.72694 25.5775C8.38032 25.5775 8.02663 25.5305 7.66587 25.4364C7.30511 25.3422 6.99386 25.215 6.73213 25.0546L6 26.4457C6.25466 26.606 6.61011 26.7385 7.06637 26.8431C7.52263 26.9477 7.99834 27 8.4935 27ZM17.6526 29L19.2856 21.0966H17.275L17.0972 21.9128C16.764 21.3042 16.1271 21 15.1866 21C14.5942 21 14.048 21.1468 13.5481 21.4403C13.0482 21.7338 12.652 22.1365 12.3595 22.6483C12.067 23.1602 11.9207 23.7311 11.9207 24.3611C11.9207 24.9051 12.0392 25.3776 12.2762 25.7785C12.5132 26.1794 12.8261 26.4855 13.2149 26.6966C13.6037 26.9078 14.0202 27.0134 14.4646 27.0134C15.0792 27.0134 15.6124 26.838 16.0642 26.4872L15.5421 29H17.6526ZM15.3212 25.4286C14.9826 25.4286 14.7163 25.331 14.5223 25.1359C14.3283 24.9407 14.2313 24.6728 14.2313 24.3322C14.2313 23.8497 14.3583 23.4594 14.6122 23.1613C14.8662 22.8633 15.1942 22.7143 15.5963 22.7143C15.9349 22.7143 16.2012 22.8136 16.3952 23.0123C16.5892 23.211 16.6862 23.4807 16.6862 23.8213C16.6862 24.2967 16.5592 24.6835 16.3053 24.9815C16.0513 25.2796 15.7233 25.4286 15.3212 25.4286ZM21.5783 27C21.9178 27 22.2482 26.9433 22.5693 26.8299C22.8905 26.7165 23.1802 26.5429 23.4386 26.309L23.3168 26.9043H25.31L26.506 21.1429H24.402L23.804 23.9917C23.7155 24.4169 23.553 24.7376 23.3168 24.9537C23.0806 25.1699 22.7816 25.2779 22.4198 25.2779C21.8809 25.2779 21.6115 25.0264 21.6115 24.5232C21.6115 24.3956 21.6262 24.2645 21.6558 24.1299L22.2759 21.1429H20.1719L19.5075 24.3212C19.4558 24.5622 19.43 24.7996 19.43 25.0334C19.43 25.6642 19.6238 26.1496 20.0113 26.4898C20.3989 26.8299 20.9212 27 21.5783 27ZM28.9054 27C29.5867 27 30.168 26.7908 30.6494 26.3724L30.5272 26.9059H32.5267L33.7264 21.237H31.6158L31.4714 21.9168C31.116 21.4008 30.5013 21.1429 29.6274 21.1429C29.035 21.1429 28.4888 21.2858 27.989 21.5717C27.4891 21.8576 27.0929 22.2498 26.8004 22.7483C26.5078 23.2469 26.3616 23.803 26.3616 24.4166C26.3616 24.9465 26.4801 25.4067 26.7171 25.7972C26.954 26.1877 27.2669 26.4858 27.6557 26.6915C28.0445 26.8972 28.4611 27 28.9054 27ZM29.4732 25.4286C29.1346 25.4286 28.8683 25.331 28.6743 25.1359C28.4803 24.9407 28.3833 24.6728 28.3833 24.3322C28.3833 23.8497 28.5103 23.4594 28.7642 23.1613C29.0182 22.8633 29.3462 22.7143 29.7483 22.7143C30.0869 22.7143 30.3533 22.8136 30.5473 23.0123C30.7412 23.211 30.8382 23.4807 30.8382 23.8213C30.8382 24.2967 30.7113 24.6835 30.4573 24.9815C30.2033 25.2796 29.8753 25.4286 29.4732 25.4286ZM36.2196 27.1429C36.8873 27.1429 37.4571 26.9188 37.9288 26.4706L37.8091 27.0453H39.7688L41.3801 19H39.3115L38.7345 21.8516C38.3788 21.3312 37.7801 21.071 36.9381 21.071C36.3575 21.071 35.8204 21.2191 35.3268 21.5155C34.8333 21.8119 34.4432 22.2185 34.1565 22.7353C33.8698 23.2521 33.7264 23.8286 33.7264 24.4647C33.7264 25.0141 33.8425 25.4912 34.0748 25.8959C34.3071 26.3007 34.6137 26.6098 34.9948 26.823C35.3758 27.0362 35.7841 27.1429 36.2196 27.1429ZM36.8321 25.4286C36.4921 25.4286 36.2264 25.331 36.0351 25.1359C35.8438 24.9407 35.7481 24.6728 35.7481 24.3322C35.7481 23.8497 35.8757 23.4594 36.1307 23.1613C36.3858 22.8633 36.7152 22.7143 37.1191 22.7143C37.4592 22.7143 37.7248 22.8136 37.9161 23.0123C38.1074 23.211 38.2031 23.4807 38.2031 23.8213C38.2031 24.2967 38.0755 24.6835 37.8205 24.9815C37.5654 25.2796 37.236 25.4286 36.8321 25.4286Z" fill="url(#paint0_linear)"/>
<defs>
<linearGradient id="paint0_linear" x1="6" y1="23.5918" x2="38.8737" y2="33.0863" gradientUnits="userSpaceOnUse">
<stop stop-color="#FF4C1D"/>
<stop offset="1" stop-color="#9B0063"/>
</linearGradient>
</defs>
</svg>
